<svg width="17" height="20" viewBox="0 0 17 20" fill="none" xmlns="http://www.w3.org/2000/svg">
<path d="M10.2939 6.23375L10.2933 6.23315C9.8083 5.74897 9.21055 5.5 8.52704 5.5C7.8435 5.5 7.24593 5.749 6.76149 6.23345C6.27656 6.71838 6.02704 7.31621 6.02704 8C6.02704 8.68367 6.27648 9.28123 6.76148 9.76555C7.24581 10.2506 7.84337 10.5 8.52704 10.5C9.21083 10.5 9.80866 10.2505 10.2936 9.76555C10.778 9.28111 11.027 8.68354 11.027 8C11.027 7.31649 10.7781 6.71874 10.2939 6.23375ZM3.27898 2.59258L3.27906 2.59251C4.79813 1.19121 6.54059 0.5 8.52704 0.5C10.5135 0.5 12.2559 1.19121 13.775 2.59251L13.7751 2.59258C15.266 3.96736 16.027 5.81773 16.027 8.2C16.027 9.67313 15.4744 11.2999 14.3081 13.09C13.1424 14.8788 11.3631 16.839 8.95219 18.9698C8.89996 19.0124 8.83465 19.0506 8.75148 19.0818C8.67043 19.1122 8.59644 19.125 8.52704 19.125C8.45764 19.125 8.38364 19.1122 8.3026 19.0818C8.21943 19.0506 8.15411 19.0124 8.10187 18.9698C5.69098 16.839 3.91169 14.8788 2.74593 13.09C1.57972 11.2999 1.02704 9.67313 1.02704 8.2C1.02704 5.81773 1.78805 3.96736 3.27898 2.59258Z" fill="#3A643B" stroke="#3A643B"/>
</svg>
